<svg width="28" height="28" viewBox="0 0 28 28" fill="none" xmlns="http://www.w3.org/2000/svg">
<path d="M10.0454 12.6917C10.0454 13.3107 10.2825 13.9043 10.7045 14.342L13.8872 17.6413L13.9153 17.6121L13.9434 17.6413L17.126 14.342C17.335 14.1253 17.5008 13.868 17.6139 13.5848C17.727 13.3017 17.7852 12.9982 17.7852 12.6917C17.7852 12.3852 17.727 12.0818 17.6139 11.7986C17.5008 11.5155 17.335 11.2582 17.126 11.0415C16.9171 10.8248 16.669 10.6528 16.3959 10.5356C16.1229 10.4183 15.8303 10.3579 15.5347 10.3579C15.2392 10.3579 14.9465 10.4183 14.6735 10.5356C14.4005 10.6528 14.1524 10.8248 13.9434 11.0415L13.9153 11.0718L13.8872 11.0415C13.4651 10.6038 12.8927 10.3579 12.2958 10.3579C11.699 10.3579 11.1266 10.6038 10.7045 11.0415C10.2825 11.4791 10.0454 12.0728 10.0454 12.6917Z" fill="#1A3A4F"/>
<path fill-rule="evenodd" clip-rule="evenodd" d="M4.7788 2.19212C4.14586 2.8485 3.79028 3.73873 3.79028 4.66699V23.3337C3.79028 24.2619 4.14586 25.1522 4.7788 25.8085C5.41173 26.4649 6.27018 26.8337 7.16528 26.8337H20.6653C21.5604 26.8337 22.4188 26.4649 23.0518 25.8085C23.6847 25.1522 24.0403 24.2619 24.0403 23.3337V4.66699C24.0403 3.73873 23.6847 2.8485 23.0518 2.19212C22.4188 1.53574 21.5604 1.16699 20.6653 1.16699H7.16528C6.27018 1.16699 5.41173 1.53574 4.7788 2.19212ZM20.6653 3.50033H7.16528C6.86691 3.50033 6.58077 3.62324 6.36979 3.84203C6.15881 4.06083 6.04028 4.35757 6.04028 4.66699V23.3337C6.04028 23.6431 6.15881 23.9398 6.36979 24.1586C6.58077 24.3774 6.86691 24.5003 7.16528 24.5003H20.6653C20.9637 24.5003 21.2498 24.3774 21.4608 24.1586C21.6718 23.9398 21.7903 23.6431 21.7903 23.3337V4.66699C21.7903 4.35757 21.6718 4.06083 21.4608 3.84203C21.2498 3.62324 20.9637 3.50033 20.6653 3.50033Z" fill="#1A3A4F"/>
</svg>
