<svg width="28" height="29" viewBox="0 0 28 29" fill="none" xmlns="http://www.w3.org/2000/svg">
<path d="M3.00387 17.3984C3.3362 17.398 3.65482 17.2658 3.88981 17.0309C4.1248 16.7959 4.25696 16.4772 4.25731 16.1449V13.0938C4.25731 12.7613 4.12523 12.4424 3.89013 12.2073C3.65502 11.9722 3.33615 11.8401 3.00366 11.8401C2.67117 11.8401 2.35229 11.9722 2.11719 12.2073C1.88208 12.4424 1.75 12.7613 1.75 13.0938V16.1454C1.75046 16.4777 1.88274 16.7963 2.11782 17.0312C2.35289 17.2661 2.67155 17.3981 3.00387 17.3984ZM8.50194 23.7631C8.83445 23.763 9.15334 23.6309 9.38859 23.3959C9.62384 23.1609 9.75622 22.8422 9.75669 22.5097V6.72905C9.75669 6.39661 9.62463 6.0778 9.38956 5.84273C9.1545 5.60767 8.83568 5.47561 8.50325 5.47561C8.17082 5.47561 7.852 5.60767 7.61694 5.84273C7.38187 6.0778 7.24981 6.39661 7.24981 6.72905V22.5097C7.25016 22.8418 7.38215 23.1602 7.61685 23.3951C7.85156 23.6301 8.16984 23.7624 8.50194 23.7631ZM14.0004 26.8147C14.3327 26.8142 14.6513 26.682 14.8862 26.447C15.1212 26.2121 15.2534 25.8935 15.2539 25.5612V3.67748C15.2539 3.34499 15.1218 3.02612 14.8867 2.79102C14.6516 2.55591 14.3327 2.42383 14.0002 2.42383C13.6677 2.42383 13.3489 2.55591 13.1137 2.79102C12.8786 3.02612 12.7466 3.34499 12.7466 3.67748V25.5612C12.747 25.8936 12.8793 26.2122 13.1144 26.4472C13.3494 26.6822 13.6681 26.8143 14.0004 26.8147ZM19.4989 21.4308C19.8316 21.4305 20.1504 21.298 20.3855 21.0627C20.6205 20.8273 20.7525 20.5082 20.7524 20.1756V9.06311C20.7524 8.73068 20.6203 8.41186 20.3853 8.1768C20.1502 7.94173 19.8314 7.80967 19.4989 7.80967C19.1665 7.80967 18.8477 7.94173 18.6126 8.1768C18.3776 8.41186 18.2455 8.73068 18.2455 9.06311V20.1756C18.2455 20.5082 18.3775 20.8272 18.6125 21.0625C18.8475 21.2979 19.1663 21.4303 19.4989 21.4308ZM24.997 18.6846C25.3293 18.6841 25.6478 18.5519 25.8828 18.317C26.1178 18.082 26.25 17.7635 26.2504 17.4312V11.8075C26.2504 11.4751 26.1184 11.1562 25.8832 10.9211C25.6481 10.686 25.3293 10.5539 24.9968 10.5539C24.6643 10.5539 24.3454 10.686 24.1103 10.9211C23.8752 11.1562 23.7431 11.4751 23.7431 11.8075V17.4312C23.7436 17.7635 23.8759 18.0822 24.1109 18.3171C24.346 18.5521 24.6646 18.6843 24.997 18.6846Z" fill="#1A3A4F"/>
</svg>
