<svg width="29" height="28" viewBox="0 0 29 28" fill="none" xmlns="http://www.w3.org/2000/svg">
<path d="M3.91843 16.7792C4.25075 16.7789 4.56937 16.6467 4.80436 16.4117C5.03935 16.1767 5.17152 15.8581 5.17186 15.5258V12.4747C5.17186 12.1422 5.03978 11.8233 4.80468 11.5882C4.56957 11.3531 4.2507 11.221 3.91821 11.221C3.58572 11.221 3.26684 11.3531 3.03174 11.5882C2.79663 11.8233 2.66455 12.1422 2.66455 12.4747V15.5262C2.66501 15.8585 2.7973 16.1771 3.03237 16.412C3.26744 16.6469 3.5861 16.779 3.91843 16.7792ZM9.41649 23.144C9.74901 23.1439 10.0679 23.0118 10.3031 22.7768C10.5384 22.5418 10.6708 22.223 10.6712 21.8905V6.10991C10.6712 5.77747 10.5392 5.45866 10.3041 5.22359C10.069 4.98853 9.75023 4.85647 9.4178 4.85647C9.08537 4.85647 8.76655 4.98853 8.53149 5.22359C8.29642 5.45866 8.16436 5.77747 8.16436 6.10991V21.8905C8.16471 22.2226 8.2967 22.541 8.53141 22.776C8.76611 23.011 9.08439 23.1433 9.41649 23.144ZM14.915 26.1955C15.2473 26.1951 15.5658 26.0629 15.8008 25.8279C16.0358 25.5929 16.168 25.2744 16.1684 24.9421V3.05834C16.1684 2.72585 16.0363 2.40698 15.8012 2.17188C15.5661 1.93677 15.2473 1.80469 14.9148 1.80469C14.5823 1.80469 14.2634 1.93677 14.0283 2.17188C13.7932 2.40698 13.6611 2.72585 13.6611 3.05834V24.9421C13.6616 25.2745 13.7938 25.5931 14.0289 25.8281C14.264 26.063 14.5826 26.1952 14.915 26.1955ZM20.4135 20.8117C20.7461 20.8113 21.065 20.6789 21.3 20.4435C21.5351 20.2082 21.667 19.8891 21.6669 19.5565V8.44397C21.6669 8.11154 21.5349 7.79272 21.2998 7.55765C21.0647 7.32259 20.7459 7.19053 20.4135 7.19053C20.0811 7.19053 19.7622 7.32259 19.5272 7.55765C19.2921 7.79272 19.16 8.11154 19.16 8.44397V19.5565C19.16 19.8891 19.2921 20.2081 19.5271 20.4434C19.7621 20.6787 20.0809 20.8112 20.4135 20.8117ZM25.9116 18.0655C26.2438 18.065 26.5624 17.9328 26.7974 17.6978C27.0323 17.4629 27.1645 17.1443 27.165 16.812V11.1884C27.165 10.8559 27.0329 10.537 26.7978 10.3019C26.5627 10.0668 26.2438 9.93475 25.9113 9.93475C25.5788 9.93475 25.26 10.0668 25.0249 10.3019C24.7898 10.537 24.6577 10.8559 24.6577 11.1884V16.812C24.6581 17.1444 24.7904 17.463 25.0255 17.698C25.2605 17.933 25.5792 18.0651 25.9116 18.0655Z" fill="#1A3A4F"/>
</svg>
