<svg width="24" height="25" viewBox="0 0 24 25" fill="none" xmlns="http://www.w3.org/2000/svg">
<path d="M2.54241 2.9814H7.84563L9.55498 7.25477L6.80899 9.08543C6.4804 9.30449 6.28303 9.67328 6.28303 10.0682C6.28603 10.1788 6.28303 10.0694 6.28303 10.0694L6.28303 10.0706L6.28304 10.0733L6.28308 10.0792L6.28325 10.0938C6.28342 10.1047 6.28372 10.1179 6.28422 10.1334C6.28522 10.1643 6.28703 10.2044 6.29026 10.2529C6.29672 10.3498 6.30891 10.4809 6.33181 10.6412C6.37759 10.9617 6.46643 11.4006 6.63892 11.9181C6.98527 12.9572 7.66582 14.3025 8.99124 15.6279C10.3167 16.9533 11.662 17.6339 12.701 17.9802C13.2185 18.1527 13.6575 18.2416 13.9779 18.2873C14.1382 18.3102 14.2693 18.3224 14.3663 18.3289C14.4148 18.3321 14.4548 18.3339 14.4858 18.3349C14.5012 18.3354 14.5145 18.3357 14.5254 18.3359L14.5399 18.3361L14.5459 18.3361L14.5485 18.3361H14.5498C14.5498 18.3361 14.6816 18.3289 14.5509 18.3361C14.9983 18.3361 15.4073 18.0833 15.6074 17.6832L16.3984 16.1012L21.6377 16.9744V22.0767C19.1443 22.4373 12.41 22.7927 7.11822 17.5009C1.82639 12.2091 2.18181 5.47489 2.54241 2.9814ZM8.73228 10.6423L10.8653 9.22029C11.7948 8.60065 12.1632 7.41464 11.7483 6.37745L10.0389 2.10408C9.68019 1.20723 8.81157 0.619141 7.84563 0.619141H2.4807C1.40763 0.619141 0.397555 1.36463 0.221395 2.52891C-0.179374 5.17772 -0.724877 12.9986 5.44784 19.1713C11.6206 25.344 19.4414 24.7985 22.0902 24.3977C23.2545 24.2216 24 23.2115 24 22.1384V16.9744C24 15.8197 23.1651 14.8341 22.0261 14.6443L16.7867 13.7711C15.7638 13.6006 14.7493 14.1172 14.2855 15.0448L13.8763 15.8633C13.7476 15.8317 13.604 15.7912 13.448 15.7392C12.7154 15.495 11.6985 14.9944 10.6616 13.9575C9.62477 12.9207 9.12418 11.9037 8.87996 11.1711C8.81397 10.9731 8.76647 10.7951 8.73228 10.6423Z" fill="#1A3A4F"/>
</svg>
