<svg width="32" height="33" viewBox="0 0 32 33" fill="none" xmlns="http://www.w3.org/2000/svg">
<path d="M16 2.94629C13.5426 2.94532 11.1283 3.59167 9.00004 4.82029C5.78698 6.67956 3.44274 9.73754 2.48174 13.3232C1.52073 16.9089 2.02146 20.7294 3.87404 23.9463C5.73364 27.159 8.79177 29.5028 12.3774 30.4634C15.9631 31.4241 19.7834 30.923 23 29.0703C26.2126 27.211 28.5564 24.1534 29.5174 20.5682C30.4784 16.983 29.978 13.163 28.126 9.94629L27.626 9.07829L22.846 11.8383L23.846 13.5663L26.714 11.9103C29.328 17.4983 27.444 24.1943 22 27.3363C20.6361 28.1263 19.1298 28.6395 17.5672 28.8465C16.0047 29.0534 14.4166 28.95 12.8941 28.5422C11.3716 28.1344 9.94449 27.4302 8.69456 26.4699C7.44463 25.5097 6.39644 24.3123 5.61004 22.9463C4.8199 21.5821 4.30663 20.0754 4.09965 18.5126C3.89267 16.9497 3.99603 15.3614 4.40382 13.8385C4.81161 12.3157 5.51582 10.8882 6.47611 9.63793C7.4364 8.38764 8.6339 7.33908 10 6.55229C11.8241 5.49848 13.8935 4.94367 16 4.94367C18.1066 4.94367 20.176 5.49848 22 6.55229L23 4.82029C20.8718 3.59167 18.4575 2.94532 16 2.94629ZM16 10.9463C12.7 10.9463 10 13.6443 10 16.9463C10 20.2463 12.7 22.9463 16 22.9463C19.3 22.9463 22 20.2463 22 16.9463C22 13.6443 19.3 10.9463 16 10.9463ZM16 12.9463C18.22 12.9463 20 14.7263 20 16.9463C20 19.1663 18.22 20.9463 16 20.9463C13.78 20.9463 12 19.1663 12 16.9463C12 14.7263 13.78 12.9463 16 12.9463Z" fill="#1A3A4F"/>
</svg>
