<svg width="31" height="30" viewBox="0 0 31 30" fill="none" xmlns="http://www.w3.org/2000/svg">
<rect x="0.902344" y="0.5" width="29" height="29" rx="14.5" fill="white"/>
<path fill-rule="evenodd" clip-rule="evenodd" d="M9.67983 9.27748C10.0498 8.90751 10.6496 8.90751 11.0196 9.27748L15.4024 13.6602L19.7851 9.27748C20.1551 8.90751 20.7549 8.90751 21.1249 9.27748C21.4948 9.64744 21.4948 10.2473 21.1249 10.6173L16.7422 15L21.1249 19.3828C21.4948 19.7528 21.4948 20.3525 21.1249 20.7225C20.7549 21.0925 20.1551 21.0925 19.7851 20.7225L15.4024 16.3398L11.0196 20.7225C10.6496 21.0925 10.0498 21.0925 9.67982 20.7225C9.30985 20.3525 9.30985 19.7528 9.67982 19.3828L14.0625 15L9.67983 10.6173C9.30985 10.2473 9.30985 9.64744 9.67983 9.27748Z" fill="#454545"/>
<rect x="0.902344" y="0.5" width="29" height="29" rx="14.5" stroke="#E6E6E6"/>
</svg>
