<svg width="37" height="36" viewBox="0 0 37 36" fill="none" xmlns="http://www.w3.org/2000/svg">
<path fill-rule="evenodd" clip-rule="evenodd" d="M18.4988 35.4477C28.1782 35.4477 36.0249 27.601 36.0249 17.9216C36.0249 8.24221 28.1782 0.395508 18.4988 0.395508C8.81934 0.395508 0.972656 8.24221 0.972656 17.9216C0.972656 27.601 8.81934 35.4477 18.4988 35.4477ZM23.9663 8.5599C24.2324 7.61455 23.315 7.05553 22.4772 7.65245L10.7812 15.9846C9.8726 16.6319 10.0155 17.9216 10.9959 17.9216H14.0758V17.8977H20.0783L15.1874 19.6234L13.0312 27.2833C12.7651 28.2287 13.6824 28.7877 14.5203 28.1907L26.2163 19.8586C27.1249 19.2113 26.9819 17.9216 26.0016 17.9216H21.3311L23.9663 8.5599Z" fill="#F15757"/>
</svg>
