<svg width="29" height="30" viewBox="0 0 29 30" fill="none" xmlns="http://www.w3.org/2000/svg">
<path fill-rule="evenodd" clip-rule="evenodd" d="M14.4984 0.450195C22.4903 0.450195 28.9697 6.92912 28.9697 14.9213C28.9697 22.9134 22.4903 29.3924 14.4984 29.3924C6.50627 29.3924 0.0273438 22.9134 0.0273438 14.9213C0.0273438 6.92912 6.50627 0.450195 14.4984 0.450195ZM13.9754 1.53306C12.3244 1.76539 10.7524 3.09195 9.53217 5.3106C9.17821 5.95415 8.85883 6.66514 8.58055 7.43281C10.2398 7.01585 12.0625 6.77002 13.9754 6.732V1.53306ZM7.35745 7.78038C7.7036 6.69416 8.12695 5.69481 8.61557 4.80646C9.22046 3.70662 9.93837 2.75685 10.7472 2.02738C6.34882 3.30478 2.88191 6.77174 1.60448 11.1702C2.33396 10.3613 3.2837 9.64339 4.38357 9.0385C5.27195 8.54988 6.27125 8.12645 7.35745 7.78038ZM7.00993 9.0034C6.59295 10.6627 6.34716 12.4854 6.3091 14.3982H1.11014C1.34247 12.7473 2.66904 11.1753 4.88775 9.95509C5.53128 9.60113 6.24224 9.28175 7.00993 9.0034ZM7.35543 14.3982C7.39862 12.3107 7.69919 10.3509 8.19641 8.61927C9.92802 8.12204 11.8878 7.82148 13.9754 7.77828V10.0379C13.1966 12.0315 11.6083 13.6198 9.61451 14.3982H7.35543ZM6.3091 15.4443H1.11014C1.34247 17.0953 2.66904 18.6672 4.88775 19.8875C5.53128 20.2414 6.24224 20.5608 7.00993 20.8392C6.59295 19.1799 6.34716 17.3572 6.3091 15.4443ZM8.19641 21.2233C7.69919 19.4917 7.39862 17.5319 7.35543 15.4443H9.61451C11.6083 16.2228 13.1966 17.811 13.9754 19.8047V22.0643C11.8878 22.0211 9.92802 21.7205 8.19641 21.2233ZM7.35745 22.0622C6.27125 21.7161 5.27195 21.2927 4.38357 20.8041C3.2837 20.1992 2.33396 19.4813 1.60448 18.6724C2.88191 23.0708 6.34882 26.5378 10.7472 27.8152C9.93837 27.0857 9.22046 26.1359 8.61557 25.0361C8.12695 24.1478 7.7036 23.1484 7.35745 22.0622ZM13.9754 28.3095C12.3244 28.0772 10.7524 26.7506 9.53217 24.532C9.17821 23.8884 8.85883 23.1774 8.58055 22.4098C10.2398 22.8267 12.0625 23.0726 13.9754 23.1105V28.3095ZM18.2496 27.8152C19.0584 27.0857 19.7763 26.1359 20.3811 25.0361C20.8695 24.1478 21.2935 23.1484 21.6394 22.0622C22.7255 21.7161 23.7247 21.2927 24.6132 20.8041C25.713 20.1992 26.663 19.4813 27.3924 18.6724C26.1146 23.0708 22.648 26.5378 18.2496 27.8152ZM20.4166 22.4098C20.138 23.1774 19.8182 23.8884 19.4644 24.532C18.2443 26.7506 16.6723 28.0772 15.0214 28.3095V23.1105C16.9343 23.0726 18.757 22.8267 20.4166 22.4098ZM21.9867 20.8392C22.7544 20.5608 23.4657 20.2414 24.1089 19.8875C26.328 18.6673 27.6543 17.0953 27.8866 15.4443H22.6878C22.6495 17.3572 22.4035 19.1799 21.9867 20.8392ZM21.6416 15.4443C21.5982 17.5319 21.2979 19.4917 20.8001 21.2233C19.0688 21.7205 17.1089 22.0211 15.0214 22.0643V19.8064C15.8 17.812 17.3887 16.223 19.3829 15.4443H21.6416ZM22.6878 14.3982H27.8866C27.6543 12.7473 26.328 11.1753 24.1089 9.95509C23.4657 9.60113 22.7544 9.28175 21.9867 9.0034C22.4035 10.6627 22.6495 12.4854 22.6878 14.3982ZM20.8001 8.61927C21.2979 10.3509 21.5982 12.3107 21.6416 14.3982H19.383C17.3887 13.6195 15.8 12.0306 15.0214 10.0362V7.77828C17.1089 7.82148 19.0688 8.12204 20.8001 8.61927ZM21.6394 7.78038C22.7255 8.12645 23.7247 8.54988 24.6132 9.0385C25.713 9.64339 26.663 10.3613 27.3924 11.1702C26.1146 6.77174 22.648 3.30478 18.2496 2.02738C19.0584 2.75685 19.7763 3.70662 20.3811 4.80646C20.8695 5.69481 21.2935 6.69416 21.6394 7.78038ZM15.0214 1.53306C16.6723 1.76539 18.2443 3.09195 19.4644 5.3106C19.8182 5.95416 20.138 6.66514 20.4166 7.43281C18.757 7.01585 16.9343 6.77002 15.0214 6.732V1.53306Z" fill="white"/>
</svg>
