<svg width="155" height="36" viewBox="0 0 155 36" fill="none" xmlns="http://www.w3.org/2000/svg">
<g clip-path="url(#clip0_1597_86815)">
<path d="M150.141 7.11164L153.799 10.7944C153.927 10.8962 154.022 11.0335 154.071 11.189C154.145 12.0955 153.459 12.1451 152.758 12.1957C152.455 12.2176 152.149 12.2398 151.901 12.3317C150.671 12.6646 149.573 13.3677 148.758 14.3457C147.941 15.3236 147.446 16.5291 147.338 17.7983C147.259 17.9449 147.14 18.0656 146.994 18.1458C146.848 18.226 146.682 18.2623 146.516 18.2505C146.323 18.2334 146.143 18.149 146.006 18.012L144.805 16.8033C144.814 16.886 144.814 16.9679 144.814 17.0338V17.8312C144.814 17.8816 144.816 17.9301 144.81 17.9786C144.802 18.0329 144.784 18.087 144.741 18.1435V18.2175C144.741 18.2553 144.745 18.2904 144.749 18.3261C144.758 18.3991 144.768 18.4743 144.741 18.5793C144.714 18.6772 144.712 18.7913 144.708 18.8932C144.707 18.9538 144.706 19.0101 144.699 19.056C144.691 19.1197 144.691 19.1877 144.685 19.2556C144.68 19.3192 144.67 19.3827 144.642 19.4423C144.603 19.5258 144.59 19.6054 144.586 19.6864C144.584 19.7251 144.584 19.7641 144.584 19.8041L144.535 20.0589L142.669 28.9535L142.521 29.6193L142.463 30.5894L141.641 34.79L141.51 35.4477H74.9813L74.6607 35.1271L74.6031 35.4066H67.4842L63.5219 31.4197L63.9 29.6193H61.664L60.2748 28.2136C58.5507 29.4691 56.4638 30.1272 54.3314 30.088C52.0391 30.1781 49.8045 29.3563 48.1167 27.8026L45.9547 25.6242L45.4861 27.8108C45.4286 28.1232 45.3546 28.4192 45.2724 28.7069L45.1984 28.9782L45.0751 29.3727C45.065 29.407 45.0512 29.4401 45.034 29.4714C44.9116 29.8338 44.7662 30.188 44.5983 30.5318C44.6027 30.5451 44.6027 30.5596 44.5983 30.5729C44.5768 30.6185 44.5521 30.6624 44.5243 30.7044C44.4002 30.9501 44.2631 31.1888 44.1133 31.4197C44.0855 31.4616 44.0608 31.5056 44.0393 31.5512L43.9489 31.6498C43.748 31.938 43.5283 32.2126 43.2912 32.4718C43.2262 32.5369 43.1612 32.5979 43.0951 32.6579C43.0277 32.7192 42.9591 32.7794 42.8884 32.8417L42.7076 33.0144C42.5936 33.1091 42.477 33.2005 42.3579 33.2886C42.2597 33.3612 42.1598 33.4315 42.0582 33.4994C40.364 34.5032 38.4098 34.981 36.4436 34.8722C33.7309 34.8722 31.5606 34.083 30.1878 32.7021L26.3242 28.8137C24.7809 29.687 23.0335 30.1353 21.2603 30.1126C18.975 30.1833 16.7539 29.3504 15.0785 27.7944L12.9166 25.616L12.2178 28.9782L12.0781 29.644H4.80296L0.824219 25.6324L1.02973 24.6624L5.40304 3.65902L5.53454 3.00139H12.8343L13.0234 3.18227V3.00139H62.2066L62.3875 3.18227V3.00139H69.5064L73.4851 7.01299L73.2878 7.97478L73.0741 9.02702H75.121L75.4416 9.34766C76.3423 8.81981 77.3653 8.53642 78.4092 8.52559C79.1769 8.51043 79.9392 8.65624 80.6471 8.95357C81.355 9.25092 81.9928 9.6931 82.5195 10.2518L82.4125 10.1285L84.3444 12.0768C85.5199 9.86556 88.1586 8.52559 91.7426 8.52559C94.5213 8.52559 96.5684 9.23251 97.8092 10.5149L99.2069 11.9207L99.6757 9.65998L99.8151 9.00233H106.942L108.981 11.0493L109.269 9.66821L109.409 9.01056H123.433L123.811 9.38876C124.761 8.82824 125.848 8.54355 126.952 8.56668C127.615 8.54079 128.276 8.66226 128.887 8.92236C129.498 9.18248 130.044 9.5748 130.486 10.071C130.463 10.0452 130.441 10.0193 130.419 9.99394C130.38 9.94679 130.34 9.90078 130.298 9.8582L131.012 10.5725C131.635 9.92812 132.383 9.41785 133.209 9.07298C134.037 8.72809 134.925 8.55574 135.821 8.56668C136.297 8.53743 136.771 8.57791 137.232 8.68564L136.454 7.90082C136.348 7.78738 136.276 7.64624 136.247 7.49376C136.219 7.34128 136.233 7.18364 136.29 7.03919C136.346 6.89468 136.443 6.76925 136.568 6.67733C136.693 6.58542 136.842 6.53077 136.997 6.51978H137.621C137.79 6.50373 137.957 6.47904 138.123 6.44578C138.996 6.26214 139.818 5.88664 140.529 5.34637C141.241 4.80615 141.822 4.1147 142.233 3.32201C142.269 3.26069 142.302 3.19762 142.332 3.13294V3.09185C142.615 2.483 142.786 1.82898 142.842 1.16001C142.856 0.952139 142.949 0.757515 143.102 0.615623C143.254 0.473681 143.455 0.395008 143.664 0.39551H143.729C143.854 0.407351 143.975 0.447591 144.082 0.513118C144.189 0.578695 144.279 0.667804 144.346 0.773671C144.938 1.34911 148.226 4.69481 148.226 4.69481C148.5 4.98943 148.48 5.37191 148.459 5.7589C148.446 5.99818 148.432 6.23922 148.489 6.46223C148.638 6.48908 148.79 6.5094 148.941 6.52315C149.086 6.53624 149.232 6.54336 149.377 6.54442C149.547 6.54798 149.713 6.60448 149.849 6.70613C149.986 6.80774 150.089 6.94948 150.141 7.11164Z" fill="black"/>
<path d="M38.4504 9.81617H43.6457L40.7357 23.6183C40.2014 26.2324 39.182 27.7286 37.6366 28.789C36.0734 29.6961 34.2785 30.1248 32.4742 30.0221C29.038 30.0221 25.7415 28.5835 25.4127 25.0898H30.6409C30.8053 25.9119 31.5617 26.3804 32.7125 26.3804C34.2662 26.3804 34.9813 25.4433 35.302 23.9718L35.6143 22.451H35.4992C35.0405 22.9553 34.484 23.361 33.8637 23.6436C33.2433 23.9263 32.572 24.0799 31.8904 24.0951C28.8654 24.0951 26.4649 21.6865 26.5142 18.1599C26.58 14.0497 29.2599 9.38047 33.7565 9.38047C34.6087 9.32308 35.4594 9.51087 36.2082 9.92168C36.957 10.3324 37.5724 10.9491 37.9818 11.6986H38.0723L38.4504 9.81617ZM33.9867 20.2397C35.9843 20.2397 37.094 17.938 37.1269 15.9569C37.1269 14.6334 36.609 13.277 35.08 13.277C32.992 13.277 31.9315 15.6034 31.8987 17.6009C31.8987 18.9491 32.4166 20.2397 33.9456 20.2397M92.3115 20.6837C92.3115 21.5632 91.5543 21.9167 90.5597 21.9167C88.9158 21.9167 88.3652 21.0947 88.357 19.9438H83.1863C83.0959 24.2349 86.9267 25.2953 90.3301 25.2953C94.6784 25.2953 97.4983 23.4128 97.5562 19.6561C97.5562 16.6556 94.9991 15.7431 92.4841 15.1594C90.5518 14.7156 89.7053 14.395 89.7132 13.6633C89.722 12.9317 90.5852 12.6358 91.4317 12.6358C92.492 12.6358 93.2149 13.0139 93.2894 13.984H98.3124C98.2546 10.3998 95.0236 9.34761 91.7357 9.34761C87.7405 9.34761 84.6249 11.1643 84.5755 14.6004C84.5755 17.305 86.4005 18.2997 89.1541 19.0067C90.9216 19.4752 92.3272 19.6232 92.3115 20.6837ZM130.725 12.0439H130.635C130.411 11.2344 129.917 10.5257 129.235 10.0352C128.554 9.54487 127.725 9.30222 126.886 9.34761C124.651 9.34761 123.286 10.4574 121.995 12.1343H121.905L122.382 9.81617H117.153L114.021 24.7939H119.488L121.132 16.7131C121.51 14.9539 122.406 13.7209 123.763 13.7209C125.119 13.7209 125.3 14.8059 125.02 16.1295L123.212 24.7939H128.678L130.323 16.7131C130.701 14.8389 131.597 13.7209 132.953 13.7209C134.309 13.7209 134.491 14.7485 134.211 16.1295L132.402 24.7939H137.869L139.826 15.8911C140.648 12.1343 139.39 9.31466 135.781 9.31466C134.777 9.31054 133.789 9.55819 132.905 10.035C132.022 10.5118 131.273 11.2025 130.725 12.0439ZM1.82812 24.7939H7.4756L11.8407 3.79053H6.20143L1.82812 24.7939ZM18.8281 9.37224C22.6424 9.37224 26.2841 11.4602 26.2265 16.187C26.1772 21.3577 22.6588 25.2296 17.2826 25.2296C13.5834 25.2296 9.88425 23.1745 9.94997 18.4723C10.0404 13.425 13.5094 9.37224 18.8281 9.37224ZM17.4389 21.5632C19.8475 21.5632 20.727 18.0695 20.727 16.0144C20.727 14.543 20.2749 13.1043 18.6883 13.1043C16.3044 13.1043 15.4906 16.8036 15.4906 18.7108C15.4906 20.2397 15.918 21.5632 17.4717 21.5632M13.7232 3.79053L12.9011 7.9912H60.3251L61.1472 3.79053H13.7232ZM51.8662 9.37224C55.6805 9.37224 59.3222 11.4602 59.2647 16.187C59.2154 21.3577 55.6888 25.2296 50.3126 25.2296C46.6133 25.2296 42.9141 23.1745 42.9881 18.4723C43.1032 13.425 46.5722 9.37224 51.8662 9.37224ZM50.5017 21.5632C52.9103 21.5632 53.7898 18.0695 53.7898 16.0144C53.7898 14.543 53.3295 13.1043 51.743 13.1043C49.3672 13.1043 48.5451 16.8036 48.5451 18.7108C48.5451 20.2397 48.9726 21.5632 50.5345 21.5632M63.0872 3.79053L62.2652 7.9912H67.7236L68.5457 3.79053H63.0872ZM58.714 24.7939H64.1805L67.3125 9.81617H61.813L58.714 24.7939ZM76.1578 25.2953C75.2878 25.3571 74.4177 25.1753 73.6451 24.7701C72.8727 24.365 72.2283 23.7527 71.7845 23.0018H71.694L70.05 30.5811H64.5175L68.9566 9.81617H74.152L73.741 11.8137C74.2835 11.0759 74.9863 10.4706 75.7965 10.0434C76.6066 9.61629 77.5031 9.37837 78.4184 9.34761C81.7066 9.34761 83.6384 12.1672 83.5809 15.8336C83.5069 20.4452 81.1147 25.2953 76.1249 25.2953H76.1578ZM75.944 13.5894C73.8314 13.5894 72.5326 16.2939 72.4997 18.3737C72.4997 19.8205 73.0094 21.4317 74.7438 21.4317C77.0045 21.4317 77.9334 18.4394 77.958 16.4418C77.958 15.0855 77.5635 13.5894 75.944 13.5894ZM107.552 22.4346H107.642L107.166 24.8104H112.36L115.493 9.83256H110.035L108.292 18.201C107.939 19.9356 106.87 20.8481 105.522 20.8481C104.173 20.8481 103.877 19.5821 104.149 18.2586L105.916 9.83256H100.458L98.5253 19.0806C97.7034 23.1087 99.5778 25.2789 102.718 25.2789C103.704 25.2693 104.671 24.9998 105.519 24.4975C106.367 23.9952 107.069 23.278 107.552 22.4181V22.4346ZM136.874 30.6551L137.696 26.4544H72.8696L72.0475 30.6551H136.874Z" fill="white"/>
<path d="M142.751 13.9267C142.698 13.9226 142.645 13.9078 142.597 13.8831C142.548 13.8586 142.505 13.8247 142.47 13.7834C142.435 13.7421 142.409 13.6944 142.392 13.6428C142.375 13.5912 142.369 13.5368 142.374 13.4828C142.442 12.7507 142.355 12.0123 142.119 11.3162C141.882 10.62 141.501 9.98166 141 9.44308C140.499 8.90447 139.89 8.47769 139.214 8.1907C138.536 7.90372 137.806 7.763 137.071 7.77778C136.962 7.77778 136.858 7.73448 136.781 7.65739C136.704 7.58031 136.66 7.47576 136.66 7.36674C136.66 7.25773 136.704 7.1532 136.781 7.07612C136.858 6.99903 136.962 6.95572 137.071 6.95572C137.268 6.96846 137.466 6.96846 137.664 6.95572C139.123 6.80017 140.483 6.1405 141.51 5.09022C142.537 4.03994 143.164 2.66476 143.286 1.20138C143.295 1.09817 143.341 1.00189 143.417 0.931782C143.494 0.861676 143.593 0.822912 143.697 0.823244C143.751 0.827394 143.804 0.842193 143.852 0.866783C143.9 0.891373 143.943 0.925271 143.978 0.966528C144.014 1.00779 144.04 1.05559 144.057 1.10718C144.074 1.15877 144.08 1.21313 144.075 1.26715C144.007 1.99856 144.094 2.73619 144.33 3.43179C144.566 4.12737 144.946 4.76526 145.446 5.30375C145.946 5.84223 146.554 6.26918 147.229 6.55669C147.906 6.8442 148.635 6.98577 149.369 6.97216C149.478 6.97216 149.583 7.01548 149.66 7.09256C149.737 7.16964 149.78 7.27418 149.78 7.38319C149.78 7.49221 149.737 7.59676 149.66 7.67384C149.583 7.75092 149.478 7.79422 149.369 7.79422C147.808 7.82001 146.31 8.42163 145.165 9.48365C144.019 10.5456 143.306 11.9932 143.163 13.5486C143.154 13.6518 143.108 13.7481 143.032 13.8182C142.956 13.8883 142.856 13.927 142.751 13.9267Z" fill="white"/>
</g>
<defs>
<clipPath id="clip0_1597_86815">
<rect width="153.353" height="35.0522" fill="white" transform="translate(0.824219 0.395508)"/>
</clipPath>
</defs>
</svg>
