<svg width="36" height="36" viewBox="0 0 36 36" fill="none" xmlns="http://www.w3.org/2000/svg">
<path d="M22.5238 1.31852L19.0773 0.39502L16.1729 11.2345L13.5507 1.44855L10.1042 2.37205L12.9372 12.9451L5.88068 5.88855L3.35763 8.4116L11.0978 16.1518L1.45866 13.569L0.535156 17.0155L11.0671 19.8376C10.9465 19.3175 10.8828 18.7756 10.8828 18.2188C10.8828 14.2775 14.0778 11.0825 18.019 11.0825C21.9603 11.0825 25.1553 14.2775 25.1553 18.2188C25.1553 18.772 25.0923 19.3106 24.9732 19.8276L34.5448 22.3923L35.4683 18.9457L24.8944 16.1125L34.5342 13.5295L33.6107 10.083L23.0373 12.9161L30.0938 5.85958L27.5707 3.33654L19.938 10.9694L22.5238 1.31852Z" fill="#F97316"/>
<path d="M24.9667 19.8682C24.6712 21.1174 24.0474 22.2397 23.1914 23.1389L30.1256 30.0732L32.6487 27.5501L24.9667 19.8682Z" fill="#F97316"/>
<path d="M23.1146 23.2109C22.2483 24.0957 21.1535 24.756 19.9258 25.0963L22.449 34.5131L25.8955 33.5895L23.1146 23.2109Z" fill="#F97316"/>
<path d="M19.8007 25.1311C19.2311 25.2775 18.634 25.3553 18.0188 25.3553C17.3596 25.3553 16.7213 25.2659 16.1154 25.0986L13.5898 34.524L17.0363 35.4474L19.8007 25.1311Z" fill="#F97316"/>
<path d="M15.9904 25.0641C14.7814 24.7069 13.7061 24.0382 12.8575 23.1509L5.90625 30.1022L8.4293 32.6252L15.9904 25.0641Z" fill="#F97316"/>
<path d="M12.8024 23.0896C11.9683 22.1967 11.3608 21.0894 11.0716 19.8594L1.46875 22.4325L2.39224 25.879L12.8024 23.0896Z" fill="#F97316"/>
</svg>
