<svg width="93" height="58" viewBox="0 0 93 58" fill="none" xmlns="http://www.w3.org/2000/svg">
<path d="M23.2773 14.2748C23.2773 6.53126 29.5547 0.253906 37.2982 0.253906H55.7006C63.4442 0.253906 69.7215 6.53126 69.7215 14.2748V28.2957H37.2982C29.5547 28.2957 23.2773 22.0183 23.2773 14.2748Z" fill="#4845D2"/>
<path d="M55.7045 5.51172H37.3021C32.4624 5.51172 28.5391 9.43507 28.5391 14.2748C28.5391 19.1145 32.4624 23.0378 37.3021 23.0378H55.7045C60.5442 23.0378 64.4675 19.1145 64.4675 14.2748C64.4675 9.43507 60.5442 5.51172 55.7045 5.51172Z" fill="#A5B4FC"/>
<path d="M37.2995 18.6556C39.7193 18.6556 41.681 16.6939 41.681 14.2741C41.681 11.8543 39.7193 9.89258 37.2995 9.89258C34.8796 9.89258 32.918 11.8543 32.918 14.2741C32.918 16.6939 34.8796 18.6556 37.2995 18.6556Z" fill="black"/>
<path d="M35.5443 13.3981C36.0282 13.3981 36.4206 13.0058 36.4206 12.5218C36.4206 12.0378 36.0282 11.6455 35.5443 11.6455C35.0603 11.6455 34.668 12.0378 34.668 12.5218C34.668 13.0058 35.0603 13.3981 35.5443 13.3981Z" fill="white"/>
<path d="M56.5768 18.6556C58.9967 18.6556 60.9584 16.6939 60.9584 14.2741C60.9584 11.8543 58.9967 9.89258 56.5768 9.89258C54.157 9.89258 52.1953 11.8543 52.1953 14.2741C52.1953 16.6939 54.157 18.6556 56.5768 18.6556Z" fill="black"/>
<path d="M54.8255 13.3981C55.3095 13.3981 55.7018 13.0058 55.7018 12.5218C55.7018 12.0378 55.3095 11.6455 54.8255 11.6455C54.3416 11.6455 53.9492 12.0378 53.9492 12.5218C53.9492 13.0058 54.3416 13.3981 54.8255 13.3981Z" fill="white"/>
<path d="M3.17026 38.5449H0.03125V52.7089H8.72103V49.9335H3.17026V38.5449Z" fill="#4845D2"/>
<path d="M9.01953 47.9042C9.01953 50.9284 11.0484 52.9381 14.1109 52.9381C17.1542 52.9381 19.1831 50.9284 19.1831 47.9042C19.1831 44.88 17.1542 42.8511 14.1109 42.8511C11.0484 42.8511 9.01953 44.88 9.01953 47.9042ZM11.9863 47.885C11.9863 46.4495 12.8285 45.4925 14.1109 45.4925C15.3741 45.4925 16.2164 46.4495 16.2164 47.885C16.2164 49.3398 15.3741 50.2968 14.1109 50.2968C12.8285 50.2968 11.9863 49.3398 11.9863 47.885Z" fill="#4845D2"/>
<path d="M19.6555 47.7512C19.6555 50.6414 21.5313 52.5937 24.1918 52.5937C25.4742 52.5937 26.5843 52.1343 27.1394 51.3879V52.7086C27.1394 54.0292 26.3164 54.9097 24.8617 54.9097C23.5601 54.9097 22.6605 54.2972 22.6031 53.2062H19.6172C19.8852 55.8285 21.9141 57.5893 24.6894 57.5893C27.9624 57.5893 30.0296 55.4648 30.0296 52.096V43.1384H27.3691L27.216 44.1145C26.68 43.3297 25.5507 42.813 24.2492 42.813C21.5695 42.813 19.6555 44.8227 19.6555 47.7512ZM22.6414 47.6746C22.6414 46.2965 23.5601 45.3778 24.7277 45.3778C26.0867 45.3778 27.082 46.2774 27.082 47.6746C27.082 49.0719 26.1058 50.0289 24.7468 50.0289C23.5793 50.0289 22.6414 49.0719 22.6414 47.6746Z" fill="#4845D2"/>
<path d="M30.8867 47.9042C30.8867 50.9284 32.9157 52.9381 35.9784 52.9381C39.0218 52.9381 41.0505 50.9284 41.0505 47.9042C41.0505 44.88 39.0218 42.8511 35.9784 42.8511C32.9157 42.8511 30.8867 44.88 30.8867 47.9042ZM33.8534 47.885C33.8534 46.4495 34.6955 45.4925 35.9784 45.4925C37.2412 45.4925 38.0833 46.4495 38.0833 47.885C38.0833 49.3398 37.2412 50.2968 35.9784 50.2968C34.6955 50.2968 33.8534 49.3398 33.8534 47.885Z" fill="#4845D2"/>
<path d="M43.5944 41.6455C44.5128 41.6455 45.2594 40.899 45.2594 39.9611C45.2594 39.0232 44.5128 38.2959 43.5944 38.2959C42.6568 38.2959 41.9102 39.0232 41.9102 39.9611C41.9102 40.899 42.6568 41.6455 43.5944 41.6455ZM42.1012 52.7087H45.0684V43.1384H42.1012V52.7087Z" fill="#4845D2"/>
<path d="M46.7969 57.3027H49.7062V51.752C50.2609 52.4793 51.5245 52.977 52.8451 52.977C55.6966 52.977 57.4194 50.795 57.3432 47.7708C57.2661 44.6891 55.4863 42.8325 52.8259 42.8325C51.4667 42.8325 50.1847 43.4259 49.6484 44.3064L49.495 43.1388H46.7969V57.3027ZM49.7632 47.9238C49.7632 46.4884 50.7201 45.5314 52.0985 45.5314C53.4953 45.5314 54.376 46.5075 54.376 47.9238C54.376 49.3403 53.4953 50.3164 52.0985 50.3164C50.7201 50.3164 49.7632 49.3594 49.7632 47.9238Z" fill="#4845D2"/>
<path d="M57.6523 49.6848C57.7286 51.618 59.2604 52.9578 61.672 52.9578C63.988 52.9578 65.596 51.7328 65.596 49.7614C65.596 48.345 64.7539 47.4071 63.1836 47.0242L61.4809 46.6032C60.8684 46.4501 60.4854 46.2969 60.4854 45.7992C60.4854 45.3016 60.8868 44.9762 61.4809 44.9762C62.1504 44.9762 62.5903 45.4165 62.5719 46.0672H65.2324C65.1553 44.0766 63.6436 42.8325 61.5379 42.8325C59.4137 42.8325 57.825 44.0958 57.825 46.0098C57.825 47.2922 58.533 48.345 60.4276 48.8427L62.1119 49.2828C62.6096 49.4168 62.8199 49.6465 62.8199 49.9719C62.8199 50.4504 62.38 50.7567 61.6334 50.7567C60.772 50.7567 60.3128 50.3547 60.3128 49.6848H57.6523Z" fill="#4845D2"/>
<path d="M70.1078 52.9572C71.2759 52.9572 72.4432 52.4212 73.0364 51.6365L73.2283 52.7084H76.0036V43.1382H73.0557V48.1147C73.0557 49.5502 72.6351 50.3349 71.2759 50.3349C70.2226 50.3349 69.5338 49.8565 69.5338 48.0764V43.1382H66.5859V49.1482C66.5859 51.426 67.8496 52.9572 70.1078 52.9572Z" fill="#4845D2"/>
<path d="M80.6781 52.7086V47.4833C80.6781 45.8754 81.5395 45.4161 82.3816 45.4161C83.3193 45.4161 83.9318 45.9903 83.9318 47.177V52.7086H86.8412V47.4833C86.8412 45.8563 87.6833 45.3969 88.5254 45.3969C89.4631 45.3969 90.0949 45.9711 90.0949 47.177V52.7086H92.9665V46.4497C92.9665 44.2677 91.8177 42.813 89.3483 42.813C87.9707 42.813 86.8412 43.4828 86.3434 44.5164C85.7694 43.4828 84.774 42.813 83.1852 42.813C82.1328 42.813 81.1566 43.2915 80.5826 44.0571L80.4678 43.1384H77.7109V52.7086H80.6781Z" fill="#4845D2"/>
</svg>
