<svg width="28" height="26" viewBox="0 0 28 26" fill="none" xmlns="http://www.w3.org/2000/svg">
<path d="M18.5776 4.40322C18.5779 4.02769 18.7132 3.66384 18.9605 3.37351C19.2079 3.08319 19.552 2.88432 19.9344 2.81072L24.9969 1.83572C25.2416 1.78861 25.4941 1.79437 25.7363 1.85256C25.9784 1.91076 26.2041 2.01995 26.3972 2.17227C26.5902 2.32459 26.7458 2.51624 26.8526 2.73342C26.9595 2.9506 27.015 3.18789 27.0151 3.42822V6.32072L20.2651 7.62072V20.9456C20.2651 22.7412 18.3751 24.1956 16.0464 24.1956C13.7176 24.1956 11.8276 22.7412 11.8276 20.9456C11.8276 19.1499 13.7176 17.6956 16.0464 17.6956C16.9959 17.6956 17.8724 17.9373 18.5776 18.3454V4.40322Z" fill="#1A3A4F"/>
<path d="M0.262265 17.9335C0.104032 18.0859 0.0151367 18.2926 0.0151367 18.5081C0.0151367 18.7235 0.104032 18.9302 0.262265 19.0826C0.420499 19.235 0.63511 19.3206 0.858887 19.3206H6.76514C6.98891 19.3206 7.20352 19.235 7.36176 19.0826C7.51999 18.9302 7.60889 18.7235 7.60889 18.5081C7.60889 18.2926 7.51999 18.0859 7.36176 17.9335C7.20352 17.7812 6.98891 17.6956 6.76514 17.6956H0.858887C0.63511 17.6956 0.420499 17.7812 0.262265 17.9335Z" fill="#1A3A4F"/>
<path d="M0.262265 11.4335C0.104032 11.5859 0.0151367 11.7926 0.0151367 12.0081C0.0151367 12.2235 0.104032 12.4302 0.262265 12.5826C0.420499 12.735 0.63511 12.8206 0.858887 12.8206H13.5151C13.7389 12.8206 13.9535 12.735 14.1118 12.5826C14.27 12.4302 14.3589 12.2235 14.3589 12.0081C14.3589 11.7926 14.27 11.5859 14.1118 11.4335C13.9535 11.2812 13.7389 11.1956 13.5151 11.1956H0.858887C0.63511 11.1956 0.420499 11.2812 0.262265 11.4335Z" fill="#1A3A4F"/>
<path d="M0.262265 4.93353C0.104032 5.08591 0.0151367 5.29257 0.0151367 5.50806C0.0151367 5.72354 0.104032 5.93021 0.262265 6.08258C0.420499 6.23495 0.63511 6.32056 0.858887 6.32056H13.5151C13.7389 6.32056 13.9535 6.23495 14.1118 6.08258C14.27 5.93021 14.3589 5.72354 14.3589 5.50806C14.3589 5.29257 14.27 5.08591 14.1118 4.93353C13.9535 4.78116 13.7389 4.69556 13.5151 4.69556H0.858887C0.63511 4.69556 0.420499 4.78116 0.262265 4.93353Z" fill="#1A3A4F"/>
</svg>
