<svg width="27" height="27" viewBox="0 0 27 27" fill="none" xmlns="http://www.w3.org/2000/svg">
<path d="M18.5625 5.02236C18.5627 4.64683 18.698 4.28298 18.9454 3.99265C19.1927 3.70233 19.5368 3.50346 19.9193 3.42986L24.9818 2.45486C25.2265 2.40776 25.479 2.41351 25.7211 2.47171C25.9633 2.5299 26.189 2.63909 26.382 2.79141C26.5751 2.94373 26.7306 3.13538 26.8375 3.35256C26.9443 3.56974 26.9998 3.80704 27 4.04736V6.93986L20.25 8.23986V21.5647C20.25 23.3603 18.36 24.8147 16.0312 24.8147C13.7025 24.8147 11.8125 23.3603 11.8125 21.5647C11.8125 19.7691 13.7025 18.3147 16.0312 18.3147C16.9807 18.3147 17.8573 18.5565 18.5625 18.9646V5.02236Z" fill="#1A3A4F"/>
<path d="M0.247129 18.5527C0.0888949 18.705 0 18.9117 0 19.1272C0 19.3427 0.0888949 19.5493 0.247129 19.7017C0.405362 19.8541 0.619974 19.9397 0.84375 19.9397H6.75C6.97378 19.9397 7.18839 19.8541 7.34662 19.7017C7.50485 19.5493 7.59375 19.3427 7.59375 19.1272C7.59375 18.9117 7.50485 18.705 7.34662 18.5527C7.18839 18.4003 6.97378 18.3147 6.75 18.3147H0.84375C0.619974 18.3147 0.405362 18.4003 0.247129 18.5527Z" fill="#1A3A4F"/>
<path d="M0.247129 12.0527C0.0888949 12.205 0 12.4117 0 12.6272C0 12.8427 0.0888949 13.0493 0.247129 13.2017C0.405362 13.3541 0.619974 13.4397 0.84375 13.4397H13.5C13.7238 13.4397 13.9384 13.3541 14.0966 13.2017C14.2549 13.0493 14.3438 12.8427 14.3438 12.6272C14.3438 12.4117 14.2549 12.205 14.0966 12.0527C13.9384 11.9003 13.7238 11.8147 13.5 11.8147H0.84375C0.619974 11.8147 0.405362 11.9003 0.247129 12.0527Z" fill="#1A3A4F"/>
<path d="M0.247129 5.55267C0.0888949 5.70505 0 5.91171 0 6.1272C0 6.34269 0.0888949 6.54935 0.247129 6.70172C0.405362 6.85409 0.619974 6.9397 0.84375 6.9397H13.5C13.7238 6.9397 13.9384 6.85409 14.0966 6.70172C14.2549 6.54935 14.3438 6.34269 14.3438 6.1272C14.3438 5.91171 14.2549 5.70505 14.0966 5.55267C13.9384 5.4003 13.7238 5.3147 13.5 5.3147H0.84375C0.619974 5.3147 0.405362 5.4003 0.247129 5.55267Z" fill="#1A3A4F"/>
</svg>
