<svg width="28" height="29" viewBox="0 0 28 29" fill="none" xmlns="http://www.w3.org/2000/svg">
<path d="M12.1573 13.89C11.8143 15.0894 12.1713 16.298 13.0719 16.9852C14.3098 17.9302 16.0644 17.3352 16.4249 15.8244C16.5183 15.4312 16.5451 14.982 16.4564 14.5924C16.1881 13.4245 15.8498 12.273 15.5324 11.097C13.9808 11.2767 12.5656 12.4644 12.1573 13.89ZM18.6299 13.5552C18.9484 14.7359 18.9624 15.9084 18.4818 17.0552C17.1658 20.1935 12.9739 20.7185 10.8133 18.0189C9.29425 16.1207 9.31992 13.3977 10.8833 11.3292C11.7933 10.1252 12.9879 9.33771 14.4393 8.93287L14.8814 8.81154C14.7834 8.32737 14.6621 7.85954 14.5979 7.38354C14.3926 5.84704 15.1953 4.46337 16.6326 3.83687C18.0629 3.21271 19.7919 3.58487 20.7509 4.72354C21.2246 5.28237 21.2118 5.98354 20.7218 6.43154C20.2411 6.87137 19.5598 6.83521 19.0476 6.32654C18.7594 6.03954 18.4526 5.81321 18.0244 5.81787C17.4119 5.82487 16.8729 6.30554 16.9219 6.91104C16.9651 7.45704 17.1238 7.99604 17.2719 8.52804C17.2976 8.61904 17.5239 8.68554 17.6663 8.70654C19.2226 8.93637 20.5876 9.55937 21.7169 10.6619C24.7013 13.5704 25.0548 18.2814 22.5009 21.6752C20.7171 24.0459 18.2893 25.3712 15.3528 25.6524C9.96159 26.1657 5.24475 22.7007 4.03609 17.418C2.93359 12.5834 5.64609 7.42204 10.2603 5.57754C10.9439 5.30454 11.5938 5.54137 11.8598 6.15854C12.1304 6.78504 11.8376 7.42554 11.1481 7.73354C8.38542 8.97021 6.69492 11.0644 6.23059 14.0615C5.60875 18.0667 8.16259 21.9669 12.0639 23.0682C15.2408 23.9665 18.6649 22.8745 20.5899 20.3499C22.4403 17.9232 22.2233 14.401 20.0918 12.3314C19.5005 11.7553 18.7663 11.3474 17.9649 11.1495C18.1959 11.9849 18.4188 12.7689 18.6299 13.5552Z" fill="#1A3A4F"/>
</svg>
