<svg width="29" height="28" viewBox="0 0 29 28" fill="none" xmlns="http://www.w3.org/2000/svg">
<path d="M12.473 13.2709C12.13 14.4702 12.487 15.6789 13.3877 16.3661C14.6255 17.3111 16.3802 16.7161 16.7407 15.2052C16.834 14.8121 16.8609 14.3629 16.7722 13.9732C16.5039 12.8054 16.1655 11.6539 15.8482 10.4779C14.2965 10.6576 12.8814 11.8452 12.473 13.2709ZM18.9457 12.9361C19.2642 14.1167 19.2782 15.2892 18.7975 16.4361C17.4815 19.5744 13.2897 20.0994 11.129 17.3997C9.61005 15.5016 9.63572 12.7786 11.199 10.7101C12.109 9.50607 13.3037 8.71857 14.755 8.31373L15.1972 8.1924C15.0992 7.70823 14.9779 7.2404 14.9137 6.7644C14.7084 5.2279 15.511 3.84423 16.9484 3.21773C18.3787 2.59357 20.1077 2.96573 21.0667 4.1044C21.5404 4.66323 21.5275 5.3644 21.0375 5.8124C20.5569 6.25223 19.8755 6.21607 19.3634 5.7074C19.0752 5.4204 18.7684 5.19407 18.3402 5.19873C17.7277 5.20573 17.1887 5.6864 17.2377 6.2919C17.2809 6.8379 17.4395 7.3769 17.5877 7.9089C17.6134 7.9999 17.8397 8.0664 17.982 8.0874C19.5384 8.31723 20.9034 8.94023 22.0327 10.0427C25.017 12.9512 25.3706 17.6622 22.8167 21.0561C21.0329 23.4267 18.605 24.7521 15.6685 25.0332C10.2774 25.5466 5.56055 22.0816 4.35188 16.7989C3.24938 11.9642 5.96188 6.8029 10.576 4.9584C11.2597 4.6854 11.9095 4.92223 12.1755 5.5394C12.4462 6.1659 12.1534 6.8064 11.4639 7.1144C8.70121 8.35107 7.01072 10.4452 6.54638 13.4424C5.92455 17.4476 8.47838 21.3477 12.3797 22.4491C15.5565 23.3474 18.9807 22.2554 20.9057 19.7307C22.7561 17.3041 22.539 13.7819 20.4075 11.7122C19.8163 11.1362 19.0821 10.7282 18.2807 10.5304C18.5117 11.3657 18.7345 12.1497 18.9457 12.9361Z" fill="#1A3A4F"/>
</svg>
