<svg width="27" height="27" viewBox="0 0 27 27" fill="none" xmlns="http://www.w3.org/2000/svg">
<path d="M13.5001 19.1465C17.6199 19.1465 21.2232 20.8527 23.183 23.3986L21.1107 24.3422C19.5155 22.5222 16.703 21.3132 13.5001 21.3132C10.2972 21.3132 7.48473 22.5222 5.88948 24.3422L3.81836 23.3975C5.77811 20.8517 9.38036 19.1465 13.5001 19.1465ZM13.5001 2.89648C14.992 2.89648 16.4227 3.46717 17.4776 4.48299C18.5325 5.49881 19.1251 6.87656 19.1251 8.31315V11.5632C19.125 12.959 18.5654 14.3009 17.5629 15.3091C16.5604 16.3172 15.1924 16.9138 13.7442 16.9744L13.5001 16.9798C12.0083 16.9798 10.5775 16.4091 9.52263 15.3933C8.46774 14.3775 7.87511 12.9997 7.87511 11.5632V8.31315C7.87519 6.91732 8.43484 5.57539 9.43735 4.56723C10.4399 3.55906 11.8078 2.96248 13.256 2.9019L13.5001 2.89648ZM13.5001 5.06315C12.6392 5.0631 11.8109 5.37984 11.1846 5.94854C10.5582 6.51725 10.1812 7.29493 10.1307 8.12248L10.1251 8.31315V11.5632C10.1243 12.4091 10.466 13.2221 11.0777 13.8293C11.6894 14.4365 12.5229 14.7901 13.4011 14.8149C14.2792 14.8397 15.1328 14.5338 15.7805 13.9622C16.4281 13.3906 16.8188 12.5984 16.8695 11.7538L16.8751 11.5632V8.31315C16.8751 7.4512 16.5195 6.62455 15.8866 6.01505C15.2537 5.40556 14.3952 5.06315 13.5001 5.06315Z" fill="#1A3A4F"/>
</svg>
