<svg width="28" height="26" viewBox="0 0 28 26" fill="none" xmlns="http://www.w3.org/2000/svg">
<path d="M13.7146 18.5273C17.8343 18.5273 21.4377 20.2336 23.3975 22.7794L21.3252 23.723C19.73 21.903 16.9175 20.694 13.7146 20.694C10.5117 20.694 7.69921 21.903 6.10396 23.723L4.03284 22.7783C5.99259 20.2325 9.59484 18.5273 13.7146 18.5273ZM13.7146 2.27734C15.2064 2.27734 16.6372 2.84803 17.6921 3.86385C18.747 4.87967 19.3396 6.25742 19.3396 7.69401V10.944C19.3395 12.3398 18.7799 13.6818 17.7773 14.6899C16.7748 15.6981 15.4069 16.2947 13.9587 16.3553L13.7146 16.3607C12.2227 16.3607 10.792 15.79 9.73711 14.7742C8.68222 13.7584 8.08959 12.3806 8.08959 10.944V7.69401C8.08967 6.29818 8.64932 4.95625 9.65183 3.94809C10.6543 2.93992 12.0223 2.34334 13.4705 2.28276L13.7146 2.27734ZM13.7146 4.44401C12.8537 4.44396 12.0254 4.7607 11.399 5.3294C10.7727 5.89811 10.3957 6.67579 10.3452 7.50334L10.3396 7.69401V10.944C10.3387 11.79 10.6805 12.6029 11.2922 13.2101C11.9039 13.8173 12.7374 14.1709 13.6155 14.1957C14.4937 14.2206 15.3473 13.9147 15.9949 13.3431C16.6426 12.7715 17.0333 11.9792 17.084 11.1347L17.0896 10.944V7.69401C17.0896 6.83206 16.734 6.00541 16.1011 5.39591C15.4681 4.78642 14.6097 4.44401 13.7146 4.44401Z" fill="#1A3A4F"/>
</svg>
