<svg width="89" height="23" viewBox="0 0 89 23" fill="none" xmlns="http://www.w3.org/2000/svg">
<mask id="mask0_1853_104578" style="mask-type:luminance" maskUnits="userSpaceOnUse" x="0" y="0" width="89" height="23">
<path d="M88.1165 0.5H0.796875V22.5H88.1165V0.5Z" fill="white"/>
</mask>
<g mask="url(#mask0_1853_104578)">
<path d="M77.1161 0.5C74.9405 0.499999 72.8138 1.14514 71.0048 2.35383C69.1959 3.56253 67.786 5.28049 66.9534 7.29048C66.1209 9.30047 65.903 11.5122 66.3274 13.646C66.7519 15.7798 67.7996 17.7398 69.3379 19.2782C70.8763 20.8165 72.8363 21.8642 74.9701 22.2886C77.1039 22.7131 79.3154 22.4952 81.326 21.6627C83.3359 20.8301 85.0535 19.4202 86.2619 17.6113C87.4711 15.8023 88.1162 13.6756 88.1162 11.5C88.1162 8.58264 86.9572 5.78473 84.8939 3.72183C82.8314 1.65893 80.0335 0.500001 77.1161 0.5ZM77.1161 16.6333C74.3659 16.6333 72.3495 14.4333 72.3495 11.5C72.3495 8.56669 74.3677 6.36667 77.1161 6.36667C79.8662 6.36667 81.8831 8.56709 81.8831 11.5C81.8831 14.4329 79.8662 16.6333 77.1161 16.6333ZM44.8495 11.5C44.8495 5.42485 40.0887 0.5 34.2161 0.5C28.3435 0.5 23.5828 5.42485 23.5828 11.5C23.5828 17.5751 28.3488 22.5 34.3995 22.5C39.2323 22.5 43.0222 19.579 44.283 15.5333H37.8828C36.9948 16.8471 35.6893 17.1833 34.3995 17.1833C31.9257 17.1833 30.3494 15.4806 29.8548 13.15H44.73C44.8096 12.6036 44.8495 12.0521 44.8495 11.5ZM34.2161 5.63333C36.3378 5.63333 37.9821 7.0949 38.4862 9.3H29.9376C30.5082 7.00778 32.0275 5.63333 34.2161 5.63333ZM12.9495 22.3167L0.796875 1.14167H7.95186L12.9495 10.7667L17.9471 1.14167H25.102L12.9495 22.3167ZM55.4828 22.3167L43.3302 1.14167H50.4852L55.4828 10.7667L60.4805 1.14167H67.6355L55.4828 22.3167Z" fill="white"/>
</g>
</svg>
