<svg width="105" height="31" viewBox="0 0 105 31" fill="none" xmlns="http://www.w3.org/2000/svg">
<path d="M35.3398 18.9951C35.3398 18.1201 36.4148 17.1951 36.5148 17.2951C37.2648 17.9701 38.7148 18.6451 39.9398 18.6451C41.0398 18.6451 41.5398 18.3201 41.5398 17.7201C41.5398 16.9951 40.6398 16.9951 39.4648 16.7451C37.5398 16.3451 35.5898 15.5201 35.5898 13.1201C35.5898 10.7201 37.3398 9.24512 40.5148 9.24512C43.5398 9.24512 44.8648 10.2951 44.8648 11.4701C44.8648 12.4701 43.6648 13.3451 43.5898 13.2701C42.8148 12.5451 41.6148 12.0201 40.5398 12.0201C39.5148 12.0201 38.9898 12.3451 38.9898 12.9201C38.9898 13.5951 39.9148 13.5451 41.1398 13.8201C43.4148 14.3201 45.1398 15.3201 45.1398 17.4451C45.1398 19.9701 43.4148 21.3951 39.9148 21.3951C36.5648 21.3951 35.3398 20.2201 35.3398 18.9951Z" fill="white"/>
<path d="M46.3398 19.5704V11.0954C46.3398 9.97041 46.8648 9.42041 47.8398 9.42041H48.3648C49.3898 9.42041 49.9398 9.97041 49.9398 11.0954V13.7954H53.6398V11.0954C53.6398 9.97041 54.1648 9.42041 55.1398 9.42041H55.6648C56.6898 9.42041 57.2148 9.97041 57.2148 11.0954V19.5704C57.2148 20.6704 56.6898 21.2454 55.6648 21.2454H55.1398C54.1648 21.2454 53.6398 20.6704 53.6398 19.5704V16.8204H49.9398V19.5704C49.9398 20.6704 49.4148 21.2454 48.3648 21.2454H47.8398C46.8398 21.2454 46.3398 20.6704 46.3398 19.5704Z" fill="white"/>
<path d="M70.0156 19.721V19.571C70.0156 18.521 70.3656 18.146 70.9656 17.496L75.3656 12.471H71.7406C70.7156 12.471 70.1656 12.096 70.1656 11.071V10.921C70.1656 9.921 70.6906 9.521 71.7406 9.521H78.2156C79.5156 9.521 80.0406 10.221 80.0406 10.921V11.096C80.0406 12.121 79.6656 12.546 79.0906 13.146L74.6156 18.171H78.5906C79.6156 18.171 80.1656 18.571 80.1656 19.596V19.746C80.1656 20.746 79.6406 21.171 78.5906 21.171H71.8656C70.5406 21.146 70.0156 20.421 70.0156 19.721Z" fill="white"/>
<path d="M63.4141 9.19629C61.0891 9.19629 58.8891 10.3213 58.8891 11.7963C58.8891 13.6213 61.1391 13.5713 61.1391 13.5713C61.3891 12.5713 62.1891 12.0713 63.2391 12.0713C64.8641 12.0713 65.4641 12.8713 65.4641 14.0213H64.6641C60.0391 14.0213 58.2891 15.8713 58.2891 17.9963C58.2891 20.0463 59.9891 21.4213 62.2391 21.4213C63.7891 21.4213 65.2891 20.8463 65.5891 19.7463C65.7391 20.5963 66.5141 21.3463 67.5641 21.3463C68.4891 21.3463 68.9391 21.0213 68.9641 20.9213V13.7713C68.9391 10.8463 66.9891 9.19629 63.4141 9.19629ZM65.4391 16.8213C65.4391 18.0463 64.5141 18.8713 63.3141 18.8713C62.4391 18.8713 61.8891 18.4213 61.8891 17.6963C61.8891 16.5213 63.4641 16.0213 64.6641 15.9963H65.4641V16.8213H65.4391Z" fill="white"/>
<path d="M85.9882 9.19629C83.6632 9.19629 81.4633 10.3213 81.4633 11.7963C81.4633 13.6213 83.7132 13.5713 83.7132 13.5713C83.9632 12.5713 84.7632 12.0713 85.8132 12.0713C87.4382 12.0713 88.0382 12.8713 88.0382 14.0213H87.2382C82.6133 14.0213 80.8633 15.8713 80.8633 17.9963C80.8633 20.0463 82.5633 21.4213 84.8132 21.4213C86.3632 21.4213 87.8632 20.8463 88.1632 19.7463C88.3132 20.5963 89.0882 21.3463 90.1382 21.3463C91.0632 21.3463 91.5132 21.0213 91.5382 20.9213V13.7713C91.5132 10.8463 89.5632 9.19629 85.9882 9.19629ZM88.0132 16.8213C88.0132 18.0463 87.0882 18.8713 85.8882 18.8713C85.0132 18.8713 84.4632 18.4213 84.4632 17.6963C84.4632 16.5213 86.0382 16.0213 87.2382 15.9963H88.0132V16.8213Z" fill="white"/>
<path d="M92.8398 19.5714V11.1464C92.8398 9.99639 93.4148 9.42139 94.4398 9.42139H95.4648C96.4148 9.42139 96.7398 9.64639 97.0648 10.3964L98.9398 15.0464L100.84 10.3964C101.19 9.59639 101.565 9.42139 102.365 9.42139H103.365C104.44 9.42139 105.015 9.99639 105.015 11.1464V19.5714C105.015 20.6714 104.64 21.2464 103.615 21.2464H103.04C102.065 21.2464 101.64 20.6714 101.64 19.5714V14.5964L100.415 18.0214C100.265 18.4714 100.24 18.8964 98.8898 18.8964C97.5398 18.8964 97.5898 18.4714 97.3898 18.0214L96.1898 14.7464V19.5964C96.1898 20.6964 95.8398 21.2714 94.7898 21.2714H94.2148C93.2398 21.2464 92.8398 20.6714 92.8398 19.5714Z" fill="white"/>
<path d="M0.339844 15.4969C0.339844 23.7969 7.08985 30.4969 15.3399 30.4969C23.6399 30.4969 30.3399 23.7469 30.3399 15.4969C30.3399 7.19686 23.5899 0.496858 15.3399 0.496858C7.08985 0.446857 0.339844 7.19686 0.339844 15.4969Z" fill="white"/>
<path d="M12.7381 21.2453C11.1631 21.2453 9.61303 20.7203 8.38803 19.6953C6.91308 18.4203 6.03808 16.6953 5.91308 14.8203C5.81308 12.9953 6.41308 11.2453 7.66308 9.87029C9.06312 8.34532 11.5381 5.94532 11.6631 5.84533C12.3381 5.19532 13.4131 5.22032 14.0631 5.89532C14.7131 6.57032 14.688 7.64533 14.013 8.29533C13.988 8.32033 11.4881 10.6953 10.1881 12.1453C9.56312 12.8203 9.26312 13.6953 9.31312 14.5953C9.36312 15.5453 9.83812 16.4453 10.6131 17.1203C11.6381 18.0203 13.6631 18.1953 14.9381 17.0703C15.6881 16.3953 16.613 15.3953 16.613 15.3953C17.238 14.6953 18.313 14.6703 19.013 15.2953C19.713 15.9203 19.738 16.9953 19.113 17.6953C19.063 17.7453 18.0881 18.8203 17.1881 19.5953C15.9881 20.6953 14.3631 21.2453 12.7381 21.2453ZM22.988 21.1203C21.588 22.6453 19.088 25.0453 18.988 25.1453C18.663 25.4453 18.2381 25.6203 17.8131 25.6203C17.3631 25.6203 16.9131 25.4453 16.5881 25.0953C15.9381 24.4203 15.963 23.3453 16.638 22.6953C16.663 22.6703 19.1631 20.2953 20.4631 18.8453C21.0881 18.1703 21.3881 17.2953 21.3381 16.3953C21.2881 15.4453 20.813 14.5453 20.038 13.8703C19.013 12.9953 16.988 12.7953 15.713 13.9203C14.963 14.5953 14.0381 15.5953 14.0381 15.5953C13.4131 16.2953 12.338 16.3203 11.638 15.6953C10.938 15.0703 10.9131 13.9953 11.5381 13.2953C11.5881 13.2453 12.563 12.1703 13.463 11.3953C15.863 9.24529 19.838 9.19529 22.263 11.2953C23.738 12.5703 24.613 14.2953 24.738 16.1703C24.863 18.0203 24.238 19.7703 22.988 21.1203Z" fill="#111111"/>
</svg>
