<svg width="145" height="35" viewBox="0 0 145 35" fill="none" xmlns="http://www.w3.org/2000/svg">
<path d="M22.8378 18.5557C22.7912 15.709 24.0007 13.4995 26.4659 11.9133C25.0798 9.86197 23.0284 8.70839 20.3213 8.45255C19.3584 8.35953 18.1257 8.5921 16.6279 9.15029C15.0138 9.755 14.1067 10.0574 13.9067 10.0574C13.4788 10.0574 12.6648 9.80151 11.4554 9.28984C10.2459 8.77816 9.21794 8.52233 8.3667 8.52233C6.93402 8.54559 5.59902 8.94563 4.37099 9.72709C3.13833 10.5086 2.15219 11.5738 1.41724 12.9274C0.477623 14.6066 0.0078125 16.6114 0.0078125 18.9373C0.0078125 21.0351 0.352029 23.133 1.04977 25.2308C1.70099 27.2356 2.52897 28.9939 3.5337 30.5058C4.43147 31.8825 5.21293 32.8826 5.88741 33.5153C6.85029 34.4921 7.83642 34.9619 8.84582 34.9108C9.49703 34.8875 10.3436 34.6456 11.3995 34.1757C12.3857 33.7339 13.3718 33.5153 14.3533 33.5153C15.2743 33.5153 16.2232 33.7339 17.2093 34.1757C18.3071 34.641 19.2049 34.8735 19.8933 34.8735C20.9213 34.827 21.8888 34.3711 22.7819 33.5153C23.0936 33.2361 23.4378 32.8501 23.8053 32.3616C24.1728 31.8732 24.5821 31.2918 25.0333 30.6126C25.3449 30.1243 25.6519 29.6033 25.9589 29.0405C26.2613 28.4776 26.5358 27.8869 26.7823 27.2542C26.8939 26.9984 26.9916 26.7379 27.0847 26.4681C27.1731 26.1984 27.2661 25.9285 27.3544 25.6495C26.5264 25.2774 25.7729 24.7518 25.1031 24.0773C23.6286 22.584 22.8749 20.742 22.8563 18.5511L22.8378 18.5557Z" fill="white"/>
<path d="M34.8477 34.4925H39.5178V17.9561H39.7318L45.4347 31.0875H48.7093L54.3935 17.9561H54.6075V34.4925H59.3335V8.95996H54.0122L47.1883 24.7846H47.0254L40.2063 8.95996H34.8477V34.4925Z" fill="white"/>
<path d="M18.6099 5.6205C19.796 4.10874 20.3914 2.47603 20.3914 0.727034V0.378165C20.3914 0.261876 20.3821 0.145586 20.3589 0.0292969C19.5263 0.0758126 18.6518 0.345605 17.7214 0.829369C16.791 1.32244 16.0235 1.93645 15.4235 2.6807C14.2141 4.1506 13.6094 5.72284 13.6094 7.40205V7.73231C13.6094 7.8393 13.6234 7.94629 13.642 8.06257C15.5026 8.25329 17.1585 7.43461 18.6145 5.61585L18.6099 5.6205Z" fill="white"/>
<path d="M119.157 8.95996H113.91V34.4925H119.157V8.95996Z" fill="white"/>
<path d="M135.002 13.0211C138.114 13.0211 139.76 15.4539 139.76 18.0728H144.793V17.5285C144.793 12.5933 141.087 8.47656 134.969 8.47656C128.415 8.47656 124.508 12.8537 124.508 20.3149V23.1941C124.508 30.6553 128.383 34.9766 134.95 34.9766C141.519 34.9766 144.793 30.8041 144.793 26.1665V25.6036H139.76C139.76 28.2411 138.15 30.4274 135.039 30.4274C131.927 30.4274 129.824 28.1295 129.824 23.2035V20.3241C129.824 15.426 131.872 13.0119 135.002 13.0119V13.0211Z" fill="white"/>
<path d="M79.4094 25.087C79.4094 28.5105 77.4372 30.3991 74.5393 30.3991C71.6413 30.3991 69.6551 28.5291 69.6551 25.087V8.95996H64.4453V25.8312C64.4453 31.2736 68.2457 34.9809 74.5439 34.9809C80.8422 34.9809 84.6426 31.2782 84.6426 25.8312V8.95996H79.4142V25.087H79.4094Z" fill="white"/>
<path d="M101.997 19.6247L98.2526 18.7642C96.0477 18.2991 94.8894 17.3036 94.8894 15.8291C94.8894 13.8661 96.4617 12.6335 98.9968 12.6335C101.853 12.6335 103.286 14.2987 103.411 16.0942H108.295C108.239 11.5868 104.532 8.44238 99.0107 8.44238C93.7823 8.44238 89.6564 11.2287 89.6564 16.2431C89.6564 20.583 92.5497 22.6017 96.0244 23.3692L99.7317 24.2485C102.23 24.8299 103.495 25.6719 103.495 27.4069C103.495 29.3885 101.937 30.7374 99.0247 30.7374C95.8942 30.7374 94.2476 29.0535 94.1033 27.165H89.0703C89.1447 30.7746 91.4984 34.9842 98.7736 34.9842C104.89 34.9842 108.672 31.9002 108.672 26.8812C108.672 22.2482 105.611 20.4341 101.992 19.6294L101.997 19.6247Z" fill="white"/>
</svg>
