<svg width="25" height="24" viewBox="0 0 25 24" fill="none" xmlns="http://www.w3.org/2000/svg">
<path d="M2.65753 2.36226H7.96074L9.67009 6.63563L6.9241 8.46629C6.59551 8.68535 6.39814 9.05414 6.39814 9.44905C6.40114 9.55964 6.39814 9.45023 6.39814 9.45023L6.39814 9.45147L6.39815 9.45411L6.39819 9.46007L6.39836 9.47465C6.39854 9.48553 6.39883 9.49876 6.39933 9.51424C6.40033 9.5452 6.40214 9.58523 6.40537 9.63374C6.41184 9.7307 6.42402 9.86179 6.44692 10.0221C6.4927 10.3425 6.58155 10.7815 6.75404 11.299C7.10039 12.338 7.78093 13.6833 9.10635 15.0088C10.4318 16.3342 11.7771 17.0147 12.8161 17.3611C13.3336 17.5336 13.7726 17.6224 14.093 17.6682C14.2533 17.6911 14.3844 17.7033 14.4814 17.7097C14.5299 17.713 14.5699 17.7148 14.6009 17.7158C14.6164 17.7163 14.6296 17.7166 14.6405 17.7168L14.655 17.7169L14.661 17.717L14.6636 17.717H14.6649C14.6649 17.717 14.7967 17.7097 14.6661 17.717C15.1134 17.717 15.5224 17.4642 15.7225 17.0641L16.5135 15.4821L21.7528 16.3553V21.4576C19.2594 21.8182 12.5252 22.1736 7.23333 16.8818C1.94151 11.59 2.29692 4.85575 2.65753 2.36226ZM8.84739 10.0232L10.9804 8.60115C11.9099 7.98151 12.2783 6.79549 11.8634 5.75831L10.154 1.48494C9.79531 0.588088 8.92668 0 7.96074 0H2.59582C1.52275 0 0.512667 0.745485 0.336508 1.90977C-0.064262 4.55858 -0.609764 12.3794 5.56296 18.5522C11.7357 24.7249 19.5565 24.1794 22.2053 23.7786C23.3696 23.6024 24.1151 22.5924 24.1151 21.5193V16.3553C24.1151 15.2005 23.2803 14.215 22.1412 14.0252L16.9019 13.1519C15.8789 12.9814 14.8644 13.4981 14.4006 14.4256L13.9914 15.2441C13.8627 15.2126 13.7191 15.172 13.5632 15.12C12.8305 14.8758 11.8136 14.3752 10.7767 13.3384C9.73988 12.3016 9.23929 11.2846 8.99508 10.552C8.92908 10.354 8.88158 10.176 8.84739 10.0232Z" fill="#1A3A4F"/>
</svg>
