<svg width="27" height="29" viewBox="0 0 27 29" fill="none" xmlns="http://www.w3.org/2000/svg">
<g clip-path="url(#clip0_8389_60627)">
<path d="M14.3944 10.7703L10.4195 7.78586V19.5152L14.3944 16.5307L18.239 13.6505L14.3944 10.7703ZM14.3944 10.7703L10.4195 7.78586V19.5152L14.3944 16.5307L18.239 13.6505L14.3944 10.7703ZM14.3944 10.7703L10.4195 7.78586V19.5152L14.3944 16.5307L18.239 13.6505L14.3944 10.7703ZM11.7228 3.31569V0.683105C9.1032 0.943757 6.71824 1.98636 4.78942 3.56331L6.64005 5.42696C8.08666 4.30616 9.82 3.55027 11.7228 3.31569ZM4.80245 7.26456L2.93879 5.41393C1.36185 7.34275 0.319245 9.72772 0.0585938 12.3473H2.69118C2.92576 10.4445 3.68165 8.71117 4.80245 7.26456ZM2.69118 14.9538H0.0585938C0.319245 17.5733 1.36185 19.9583 2.93879 21.8871L4.80245 20.0235C3.68165 18.5899 2.92576 16.8565 2.69118 14.9538ZM4.78942 23.7377C6.71824 25.3147 9.11624 26.3573 11.7228 26.6179V23.9854C9.82 23.7508 8.08666 22.9949 6.64005 21.8741L4.78942 23.7377ZM26.0586 13.6505C26.0586 20.3753 20.9498 25.9272 14.3944 26.6179V23.9854C19.5032 23.3077 23.4521 18.9287 23.4521 13.6505C23.4521 8.37233 19.5032 3.99338 14.3944 3.31569V0.683105C20.9498 1.37383 26.0586 6.92571 26.0586 13.6505Z" fill="#1A3A4F"/>
</g>
<defs>
<clipPath id="clip0_8389_60627">
<rect width="27" height="28" fill="white" transform="translate(0 0.619141)"/>
</clipPath>
</defs>
</svg>
