<svg width="28" height="29" viewBox="0 0 28 29" fill="none" xmlns="http://www.w3.org/2000/svg">
<path d="M5.85656 4.48985C8.16767 2.63371 11.044 1.6237 14.0082 1.62745C17.4539 1.62745 20.7584 2.99622 23.1948 5.43266C25.6312 7.86909 27 11.1736 27 14.6192C27 18.0649 25.6312 21.3694 23.1948 23.8058C20.7584 26.2422 17.4539 27.611 14.0082 27.611C13.7432 27.611 13.489 27.5057 13.3016 27.3183C13.1141 27.1309 13.0089 26.8767 13.0089 26.6116C13.0089 26.3466 13.1141 26.0924 13.3016 25.905C13.489 25.7176 13.7432 25.6123 14.0082 25.6123C16.7185 25.6055 19.3307 24.5978 21.3434 22.7826C23.356 20.9675 24.6272 18.4728 24.9127 15.7776C25.1983 13.0824 24.4782 10.3767 22.8906 8.18003C21.3031 5.98338 18.96 4.45062 16.3113 3.87607C13.6626 3.30152 10.895 3.72568 8.54001 5.0671C6.18497 6.40852 4.40848 8.57264 3.55165 11.1439C2.69482 13.7152 2.81805 16.5124 3.89769 18.9983C4.97732 21.4843 6.93725 23.4838 9.40113 24.6129C9.52896 24.662 9.64532 24.7369 9.74301 24.8328C9.8407 24.9288 9.91763 25.0438 9.96903 25.1707C10.0204 25.2976 10.0452 25.4338 10.0418 25.5707C10.0384 25.7076 10.0069 25.8423 9.94922 25.9665C9.89157 26.0907 9.80902 26.2017 9.70668 26.2927C9.60433 26.3837 9.48439 26.4527 9.35428 26.4954C9.22417 26.538 9.08668 26.5535 8.95033 26.5409C8.81398 26.5282 8.68169 26.4877 8.56167 26.4218C5.8688 25.1828 3.68058 23.0603 2.36017 20.4064C1.03977 17.7526 0.666586 14.727 1.30257 11.8318C1.93855 8.93662 3.54544 6.34598 5.85656 4.48985Z" fill="#1A3A4F"/>
<path d="M21.5934 13.32C21.4217 13.3195 21.2531 13.2748 21.1037 13.1901C17.506 11.1614 12.729 10.6217 6.88273 11.6911C6.75346 11.7141 6.62091 11.7114 6.49267 11.6832C6.36443 11.655 6.24301 11.6017 6.13535 11.5266C6.02769 11.4514 5.9359 11.3557 5.86523 11.2451C5.79455 11.1344 5.74638 11.0109 5.72347 10.8816C5.70044 10.7523 5.70312 10.6198 5.73135 10.4915C5.75958 10.3633 5.8128 10.2419 5.88798 10.1342C5.96315 10.0265 6.05881 9.93475 6.16948 9.86408C6.28015 9.7934 6.40366 9.74523 6.53296 9.72232C12.849 8.61302 18.0856 9.18266 22.0831 11.4512C22.2749 11.5599 22.4253 11.7289 22.5111 11.932C22.5968 12.1351 22.613 12.3608 22.5571 12.574C22.5012 12.7872 22.3764 12.976 22.2022 13.1109C22.0279 13.2458 21.8138 13.3194 21.5934 13.32Z" fill="#1A3A4F"/>
<path d="M19.5147 17.1576C16.5266 15.0589 12.5492 14.5393 7.67224 15.6186V15.6586C7.40719 15.7155 7.13036 15.6649 6.90264 15.5178C6.67493 15.3707 6.51499 15.1391 6.458 14.8741C6.40102 14.609 6.45166 14.3322 6.59878 14.1045C6.7459 13.8768 6.97746 13.7168 7.24251 13.6598C12.6791 12.4606 17.2062 13.0802 20.674 15.5286C20.8895 15.6815 21.0356 15.9134 21.0806 16.1737C21.1255 16.434 21.0656 16.7015 20.9139 16.9178C20.822 17.0501 20.6995 17.1584 20.5568 17.2332C20.4142 17.308 20.2555 17.3472 20.0944 17.3475C19.8861 17.3461 19.6834 17.2798 19.5147 17.1576Z" fill="#1A3A4F"/>
<path d="M17.7259 20.4955C15.4173 19.0064 12.3293 18.6367 8.53169 19.4062V19.4462C8.26664 19.4979 7.99192 19.4421 7.76795 19.2913C7.54399 19.1404 7.38913 18.9067 7.33745 18.6417C7.28576 18.3766 7.34148 18.1019 7.49236 17.8779C7.64323 17.654 7.87689 17.4991 8.14194 17.4474C12.4592 16.618 16.007 17.0277 18.8052 18.8166C18.9862 18.9335 19.1246 19.1058 19.1997 19.3078C19.2748 19.5098 19.2826 19.7307 19.2219 19.9375C19.1612 20.1442 19.0353 20.3259 18.8629 20.4553C18.6906 20.5846 18.481 20.6548 18.2655 20.6554C18.074 20.6549 17.8867 20.5994 17.7259 20.4955Z" fill="#1A3A4F"/>
</svg>
