<svg width="29" height="28" viewBox="0 0 29 28" fill="none" xmlns="http://www.w3.org/2000/svg">
<path d="M6.37169 3.87071C8.68281 2.01457 11.5592 1.00456 14.5234 1.00831C17.969 1.00831 21.2735 2.37708 23.7099 4.81352C26.1464 7.24995 27.5151 10.5545 27.5151 14.0001C27.5151 17.4457 26.1464 20.7502 23.7099 23.1867C21.2735 25.6231 17.969 26.9919 14.5234 26.9919C14.2583 26.9919 14.0041 26.8866 13.8167 26.6992C13.6293 26.5117 13.524 26.2576 13.524 25.9925C13.524 25.7275 13.6293 25.4733 13.8167 25.2858C14.0041 25.0984 14.2583 24.9931 14.5234 24.9931C17.2336 24.9864 19.8459 23.9787 21.8585 22.1635C23.8712 20.3483 25.1423 17.8536 25.4279 15.1584C25.7134 12.4632 24.9933 9.75754 23.4058 7.56089C21.8182 5.36424 19.4751 3.83148 16.8264 3.25693C14.1778 2.68238 11.4102 3.10654 9.05515 4.44796C6.70011 5.78938 4.92361 7.9535 4.06678 10.5248C3.20996 13.0961 3.33319 15.8932 4.41282 18.3792C5.49246 20.8651 7.45239 22.8647 9.91627 23.9938C10.0441 24.0429 10.1605 24.1177 10.2582 24.2137C10.3558 24.3096 10.4328 24.4247 10.4842 24.5516C10.5356 24.6785 10.5603 24.8146 10.5569 24.9515C10.5535 25.0884 10.522 25.2231 10.4644 25.3473C10.4067 25.4716 10.3242 25.5826 10.2218 25.6736C10.1195 25.7645 9.99952 25.8335 9.86941 25.8762C9.73931 25.9189 9.60181 25.9344 9.46547 25.9217C9.32912 25.9091 9.19683 25.8685 9.0768 25.8026C6.38394 24.5637 4.19571 22.4411 2.87531 19.7873C1.5549 17.1334 1.18172 14.1078 1.8177 11.2126C2.45368 8.31748 4.06058 5.72684 6.37169 3.87071Z" fill="#1A3A4F"/>
<path d="M22.1086 12.7009C21.9369 12.7004 21.7682 12.6556 21.6189 12.571C18.0212 10.5423 13.2442 10.0026 7.39787 11.0719C7.2686 11.095 7.13605 11.0923 7.00781 11.0641C6.87957 11.0358 6.75815 10.9826 6.65049 10.9074C6.54283 10.8322 6.45104 10.7366 6.38036 10.6259C6.30969 10.5153 6.26152 10.3917 6.2386 10.2624C6.21558 10.1332 6.21826 10.0006 6.24649 9.87238C6.27471 9.74414 6.32794 9.62272 6.40311 9.51506C6.47829 9.4074 6.57395 9.31561 6.68462 9.24494C6.79528 9.17426 6.9188 9.12609 7.04809 9.10318C13.3641 7.99388 18.6008 8.56352 22.5983 10.8321C22.79 10.9408 22.9405 11.1098 23.0262 11.3129C23.1119 11.5159 23.1281 11.7416 23.0723 11.9549C23.0164 12.1681 22.8916 12.3568 22.7173 12.4918C22.543 12.6267 22.329 12.7002 22.1086 12.7009Z" fill="#1A3A4F"/>
<path d="M20.0299 16.5385C17.0418 14.4398 13.0643 13.9201 8.18737 14.9994V15.0394C7.92232 15.0964 7.64549 15.0458 7.41778 14.8986C7.19007 14.7515 7.03013 14.52 6.97314 14.2549C6.91615 13.9899 6.96679 13.713 7.11392 13.4853C7.26104 13.2576 7.49259 13.0977 7.75764 13.0407C13.1942 11.8414 17.7213 12.4611 21.1891 14.9095C21.4046 15.0623 21.5508 15.2943 21.5957 15.5546C21.6407 15.8149 21.5807 16.0824 21.429 16.2986C21.3372 16.431 21.2147 16.5392 21.072 16.614C20.9293 16.6889 20.7706 16.7281 20.6095 16.7284C20.4012 16.727 20.1986 16.6606 20.0299 16.5385Z" fill="#1A3A4F"/>
<path d="M18.241 19.8764C15.9325 18.3873 12.8444 18.0175 9.04683 18.7871V18.827C8.78178 18.8787 8.50705 18.823 8.28309 18.6721C8.05913 18.5212 7.90427 18.2876 7.85258 18.0225C7.8009 17.7575 7.85662 17.4828 8.00749 17.2588C8.15836 17.0348 8.39203 16.88 8.65707 16.8283C12.9743 15.9988 16.5221 16.4086 19.3203 18.1974C19.5014 18.3144 19.6397 18.4867 19.7148 18.6887C19.7899 18.8907 19.7977 19.1115 19.737 19.3183C19.6763 19.5251 19.5504 19.7067 19.3781 19.8361C19.2057 19.9655 18.9962 20.0357 18.7807 20.0363C18.5892 20.0358 18.4019 19.9803 18.241 19.8764Z" fill="#1A3A4F"/>
</svg>
