<svg width="30" height="35" viewBox="0 0 30 35" fill="none" xmlns="http://www.w3.org/2000/svg">
<path d="M17.9464 28.187H19.5536C19.7667 28.187 19.9711 28.1023 20.1218 27.9516C20.2725 27.8009 20.3571 27.5965 20.3571 27.3834V12.9191C20.3571 12.706 20.2725 12.5016 20.1218 12.3509C19.9711 12.2002 19.7667 12.1155 19.5536 12.1155H17.9464C17.7333 12.1155 17.5289 12.2002 17.3782 12.3509C17.2275 12.5016 17.1429 12.706 17.1429 12.9191V27.3834C17.1429 27.5965 17.2275 27.8009 17.3782 27.9516C17.5289 28.1023 17.7333 28.187 17.9464 28.187ZM28.9286 5.68698H23.41L21.1333 1.8901C20.8475 1.414 20.4433 1.02003 19.9601 0.746591C19.4768 0.473153 18.9309 0.32957 18.3757 0.329834H11.6243C11.0693 0.329801 10.5237 0.473494 10.0407 0.746921C9.55768 1.02035 9.15369 1.41419 8.86808 1.8901L6.58996 5.68698H1.07143C0.787268 5.68698 0.514746 5.79986 0.313814 6.00079C0.112882 6.20172 0 6.47425 0 6.75841L0 7.82983C0 8.114 0.112882 8.38652 0.313814 8.58745C0.514746 8.78838 0.787268 8.90126 1.07143 8.90126H2.14286V31.4013C2.14286 32.2537 2.4815 33.0713 3.0843 33.6741C3.6871 34.2769 4.50466 34.6156 5.35714 34.6156H24.6429C25.4953 34.6156 26.3129 34.2769 26.9157 33.6741C27.5185 33.0713 27.8571 32.2537 27.8571 31.4013V8.90126H28.9286C29.2127 8.90126 29.4853 8.78838 29.6862 8.58745C29.8871 8.38652 30 8.114 30 7.82983V6.75841C30 6.47425 29.8871 6.20172 29.6862 6.00079C29.4853 5.79986 29.2127 5.68698 28.9286 5.68698ZM11.5071 3.73899C11.543 3.67938 11.5936 3.63009 11.6542 3.59594C11.7148 3.56178 11.7831 3.54392 11.8527 3.54412H18.1473C18.2167 3.54404 18.285 3.56195 18.3454 3.5961C18.4059 3.63025 18.4564 3.67948 18.4922 3.73899L19.6614 5.68698H10.3386L11.5071 3.73899ZM24.6429 31.4013H5.35714V8.90126H24.6429V31.4013ZM10.4464 28.187H12.0536C12.2667 28.187 12.4711 28.1023 12.6218 27.9516C12.7725 27.8009 12.8571 27.5965 12.8571 27.3834V12.9191C12.8571 12.706 12.7725 12.5016 12.6218 12.3509C12.4711 12.2002 12.2667 12.1155 12.0536 12.1155H10.4464C10.2333 12.1155 10.0289 12.2002 9.87822 12.3509C9.72752 12.5016 9.64286 12.706 9.64286 12.9191V27.3834C9.64286 27.5965 9.72752 27.8009 9.87822 27.9516C10.0289 28.1023 10.2333 28.187 10.4464 28.187Z" fill="#1A3A4F"/>
</svg>
