<svg width="28" height="28" viewBox="0 0 28 28" fill="none" xmlns="http://www.w3.org/2000/svg">
<g clip-path="url(#clip0_8002_15530)">
<path d="M15.2094 10.1512L11.2344 7.16672V18.896L15.2094 15.9116L19.054 13.0314L15.2094 10.1512ZM15.2094 10.1512L11.2344 7.16672V18.896L15.2094 15.9116L19.054 13.0314L15.2094 10.1512ZM15.2094 10.1512L11.2344 7.16672V18.896L15.2094 15.9116L19.054 13.0314L15.2094 10.1512ZM12.5377 2.69655V0.0639648C9.91815 0.324616 7.53318 1.36722 5.60436 2.94417L7.45499 4.80782C8.9016 3.68702 10.6349 2.93113 12.5377 2.69655ZM5.61739 6.64542L3.75374 4.79479C2.17679 6.72361 1.13419 9.10858 0.873535 11.7281H3.50612C3.7407 9.82537 4.49659 8.09203 5.61739 6.64542ZM3.50612 14.3346H0.873535C1.13419 16.9542 2.17679 19.3392 3.75374 21.268L5.61739 19.4043C4.49659 17.9707 3.7407 16.2374 3.50612 14.3346ZM5.60436 23.1186C7.53318 24.6955 9.93118 25.7382 12.5377 25.9988V23.3662C10.6349 23.1316 8.9016 22.3757 7.45499 21.2549L5.60436 23.1186ZM26.8735 13.0314C26.8735 19.7562 21.7648 25.3081 15.2094 25.9988V23.3662C20.3181 22.6885 24.267 18.3096 24.267 13.0314C24.267 7.75319 20.3181 3.37424 15.2094 2.69655V0.0639648C21.7648 0.754692 26.8735 6.30657 26.8735 13.0314Z" fill="#1A3A4F"/>
</g>
<defs>
<clipPath id="clip0_8002_15530">
<rect width="27" height="28" fill="white" transform="translate(0.815186)"/>
</clipPath>
</defs>
</svg>
