<svg width="29" height="26" viewBox="0 0 29 26" fill="none" xmlns="http://www.w3.org/2000/svg">
<path d="M1.88184 25.1233C1.88184 22.6985 2.86517 20.373 4.61551 18.6583C6.36585 16.9437 8.73981 15.9805 11.2152 15.9805C13.6905 15.9805 16.0645 16.9437 17.8148 18.6583C19.5652 20.373 20.5485 22.6985 20.5485 25.1233H18.2152C18.2152 23.3047 17.4777 21.5606 16.1649 20.2746C14.8522 18.9886 13.0717 18.2662 11.2152 18.2662C9.35865 18.2662 7.57818 18.9886 6.26542 20.2746C4.95267 21.5606 4.21517 23.3047 4.21517 25.1233H1.88184ZM11.2152 14.8376C7.34767 14.8376 4.21517 11.769 4.21517 7.98046C4.21517 4.19189 7.34767 1.12332 11.2152 1.12332C15.0827 1.12332 18.2152 4.19189 18.2152 7.98046C18.2152 11.769 15.0827 14.8376 11.2152 14.8376ZM11.2152 12.5519C13.7935 12.5519 15.8818 10.5062 15.8818 7.98046C15.8818 5.45475 13.7935 3.40904 11.2152 3.40904C8.63684 3.40904 6.5485 5.45475 6.5485 7.98046C6.5485 10.5062 8.63684 12.5519 11.2152 12.5519ZM25.8545 0.876465C26.9724 3.08427 27.5523 5.516 27.5485 7.98046C27.5485 10.5325 26.9383 12.945 25.8545 15.0845L23.9353 13.7176C24.7814 11.9187 25.2181 9.96111 25.2152 7.98046C25.2179 5.99984 24.7812 4.04228 23.9353 2.24332L25.8545 0.876465ZM22.0022 3.61932C22.5848 5.00236 22.8838 6.48427 22.8818 7.98046C22.8838 9.47666 22.5848 10.9586 22.0022 12.3416L20.0457 10.9473C20.3795 9.99239 20.5494 8.98984 20.5485 7.98046C20.5498 6.97115 20.3803 5.9686 20.0468 5.01361L22.0022 3.61932Z" fill="#1A3A4F"/>
</svg>
