<svg width="28" height="25" viewBox="0 0 28 25" fill="none" xmlns="http://www.w3.org/2000/svg">
<path d="M1.16602 24.7425C1.16602 22.3176 2.14935 19.9921 3.89969 18.2775C5.65003 16.5629 8.02399 15.5996 10.4993 15.5996C12.9747 15.5996 15.3487 16.5629 17.099 18.2775C18.8494 19.9921 19.8327 22.3176 19.8327 24.7425H17.4993C17.4993 22.9238 16.7618 21.1797 15.4491 19.8937C14.1363 18.6078 12.3559 17.8853 10.4993 17.8853C8.64283 17.8853 6.86236 18.6078 5.5496 19.8937C4.23685 21.1797 3.49935 22.9238 3.49935 24.7425H1.16602ZM10.4993 14.4567C6.63185 14.4567 3.49935 11.3882 3.49935 7.59961C3.49935 3.81103 6.63185 0.742463 10.4993 0.742463C14.3668 0.742463 17.4993 3.81103 17.4993 7.59961C17.4993 11.3882 14.3668 14.4567 10.4993 14.4567ZM10.4993 12.171C13.0777 12.171 15.166 10.1253 15.166 7.59961C15.166 5.07389 13.0777 3.02818 10.4993 3.02818C7.92102 3.02818 5.83268 5.07389 5.83268 7.59961C5.83268 10.1253 7.92102 12.171 10.4993 12.171ZM25.1387 0.495605C26.2566 2.70341 26.8364 5.13514 26.8327 7.59961C26.8327 10.1516 26.2225 12.5642 25.1387 14.7036L23.2195 13.3367C24.0656 11.5378 24.5023 9.58025 24.4993 7.59961C24.5021 5.61898 24.0654 3.66142 23.2195 1.86246L25.1387 0.495605ZM21.2863 3.23846C21.869 4.6215 22.1679 6.10341 22.166 7.59961C22.1679 9.0958 21.869 10.5777 21.2863 11.9607L19.3298 10.5665C19.6637 9.61153 19.8336 8.60898 19.8327 7.59961C19.834 6.59029 19.6645 5.58775 19.331 4.63275L21.2863 3.23846Z" fill="#1A3A4F"/>
</svg>
